<svg xmlns="http://www.w3.org/2000/svg" xmlns:xlink="http://www.w3.org/1999/xlink" version="1.1" x="0px" y="0px" viewBox="0 0 100 100" enable-background="new 0 0 100 100" xml:space="preserve"><g><path d="M60.2,85.2l-1.9-1.8l0.4-0.9c2-0.3,10.2-3.3,10.2-3.3l6.9,2.8l10.8-2.4c0,0-10.9,0.2-11.4,0.2c-0.5,0-5.1-2.5-5.1-2.5   l-10.5,2.8l2.7-6.7c0.2-0.5,0.5-1.4,0.5-2c0.1-0.5-0.4-2.2-0.7-2.7l-1-2.1c-0.2-0.5-0.7-1.3-1-1.7c-0.3-0.4-1.8-1.3-2.3-1.5l-7-2.8   c-0.5-0.2-0.8-0.8-0.6-1.4l0.9-2.3c0.2-0.5,0-1.2-0.5-1.6l-5.3-3.8c-0.5-0.3-1-0.2-1.2,0.4l-1.7,4.2c-0.2,0.5-0.8,0.8-1.4,0.6   l-7-2.8c-0.5-0.2-1-0.4-1-0.4c0,0-0.4-0.1-1-0.2c-0.5-0.1-2.2,0.3-2.7,0.5l-2.1,0.8c-0.5,0.2-1.3,0.6-1.8,1C25,56,24.2,57.5,24,58   l-5.3,13.3c-0.2,0.5-0.6,2.2-0.5,2.8c0.1,0.5,0.4,1.4,0.6,1.9l1,2.1c0.2,0.5,0.7,1.3,1,1.7c0.3,0.4,1.8,1.3,2.3,1.5l5.3,2.1l-6.9,1   L13.4,89l8.4-3.7l7-0.3l1.7-0.5c0.2,0.3,0.2,0.6,0.1,0.9l-0.4,1.1c-0.2,0.5-0.4,1.2-0.4,1.5l-3.3,2l-6.1,0.2L16,94.8l4.7-3.3   c0,0,6.2,0.1,6.4,0.1c0.2,0,1.3-1.4,1.3-1.4l-0.5,1.8l3.6,2.5l-0.2,2.9l1.2-3.6L29,91.9l1-2.6l0.7-0.4c0.3,0.2,0.6,0.3,0.8,0.4   l3.9,1.6c0.5,0.2,1.2,0.4,1.5,0.4c0.3,0,1-1,1.2-1.5l0.4-1.1c0.2-0.5,0.8-0.8,1.4-0.6l7,2.8c0.5,0.2,1.4,0.5,1.9,0.5   c0.5,0.1,2.2-0.3,2.7-0.5l2.2-0.9c0.5-0.2,1.3-0.6,1.8-0.9c0.4-0.3,1.3-1.8,1.5-2.3l0.8-1.9l4.2,4.5V92l2.4,2.2l-1.9-3.2l-0.1-1.7   l-1-1.6l7.4-0.1l7.8,4.5l-7.4-6.6L60.2,85.2z M23,77.4c-0.2,0.5-0.4,0.9-0.5,0.9c-0.1-0.1-0.3-0.6-0.6-1.2l-1-2.1   c-0.2-0.5-0.5-1.1-0.5-1.3c0-0.2,0.2-1,0.4-1.5l5.3-13.3c0.2-0.5,0.5-1.1,0.6-1.2c0.1-0.1,0.8-0.5,1.4-0.7l2.1-0.8   c0.5-0.2,1-0.4,1.1-0.4c0.1,0,0.1,0.4-0.1,0.9L23,77.4z M47.7,87.5c-0.2,0.5-0.8,0.8-1.4,0.6l-20.9-8.4c-0.5-0.2-0.8-0.8-0.6-1.4   l8.4-21c0.2-0.5,0.8-0.8,1.4-0.6l20.9,8.4c0.5,0.2,0.8,0.8,0.6,1.4L47.7,87.5z M54.8,85.8c-0.2,0.5-0.5,1.1-0.6,1.2   c-0.1,0.1-0.8,0.5-1.4,0.7l-2.2,0.9c-0.5,0.2-1,0.4-1.1,0.4c-0.1,0-0.1-0.4,0.2-0.9l8.3-20.7c0.2-0.5,0.4-0.9,0.5-0.9   c0.1,0.1,0.4,0.6,0.6,1.2l1,2.1c0.2,0.5,0.5,1.1,0.5,1.3c0,0.2-0.2,1-0.4,1.5L54.8,85.8z"></path><path d="M56.3,24.5l5.3,3.8c0.5,0.3,1,0.2,1.2-0.4l2.3-5.7c0.2-0.5,0-1.2-0.5-1.6l-5.3-3.8c-0.5-0.3-1-0.2-1.2,0.4l-2.3,5.7   C55.6,23.4,55.8,24.1,56.3,24.5z"></path><path d="M52.8,33.1l5.3,3.8c0.5,0.3,1,0.2,1.2-0.4l2.3-5.7c0.2-0.5,0-1.2-0.5-1.6l-5.3-3.8c-0.5-0.3-1-0.2-1.2,0.4l-2.3,5.7   C52.1,32.1,52.3,32.8,52.8,33.1z"></path><path d="M59.7,15.8l5.3,3.8c0.5,0.3,1,0.2,1.2-0.4l2.3-5.7c0.2-0.5,0-1.2-0.5-1.6l-5.3-3.8c-0.5-0.3-1-0.2-1.2,0.4l-2.3,5.7   C59.1,14.7,59.3,15.4,59.7,15.8z"></path><path d="M49.3,41.8l5.3,3.8c0.5,0.3,1,0.2,1.2-0.4l2.3-5.7c0.2-0.5,0-1.2-0.5-1.6l-5.3-3.8c-0.5-0.3-1-0.2-1.2,0.4l-2.3,5.7   C48.6,40.8,48.8,41.5,49.3,41.8z"></path><path d="M45.8,50.5l5.3,3.8c0.5,0.3,1,0.2,1.2-0.4l2.3-5.7c0.2-0.5,0-1.2-0.5-1.6l-5.3-3.8c-0.5-0.3-1-0.2-1.2,0.4L45.3,49   C45.1,49.5,45.3,50.2,45.8,50.5z"></path><path d="M63.2,7.1l5.3,3.8c0.5,0.3,1,0.2,1.2-0.4l1.7-4.2c0.2-0.5,0-1.1-0.6-1.4l-5.9-2.4c-0.5-0.2-1.1,0-1.4,0.6l-0.9,2.3   C62.6,6,62.8,6.7,63.2,7.1z"></path></g></svg>