<svg style="background-color:#EED646;" width="512" height="512" xmlns="http://www.w3.org/2000/svg" xmlns:svg="http://www.w3.org/2000/svg">
 <g>
  <title>RoboLoki</title>
  <g stroke="null" id="svg_1">
   <path d="m421.921326,462.200043l-5.014801,-4.750885l1.055786,-2.375397c5.278687,-0.791748 26.921265,-8.709778 26.921265,-8.709778l18.211456,7.390137l28.504974,-6.334442c0,0 -28.76886,0.527832 -30.088501,0.527832c-1.319702,0 -13.460693,-6.598267 -13.460693,-6.598267l-27.713104,7.390137l7.12619,-17.683624c0.527893,-1.319702 1.319641,-3.695099 1.319641,-5.278717c0.263977,-1.319672 -1.055695,-5.806519 -1.847473,-7.12616l-2.639343,-5.542664c-0.527924,-1.319672 -1.847565,-3.431122 -2.639343,-4.486938c-0.79187,-1.055695 -4.750854,-3.431091 -6.070557,-3.958984l-18.475403,-7.390137c-1.319672,-0.527893 -2.11145,-2.111542 -1.583557,-3.695099l2.375397,-6.070496c0.527832,-1.319702 0,-3.167175 -1.319641,-4.222992l-13.988586,-10.029388c-1.319702,-0.791809 -2.639343,-0.527893 -3.167145,1.055695l-4.486938,11.085236c-0.527802,1.319672 -2.11145,2.11145 -3.695068,1.583618l-18.47525,-7.390198c-1.319641,-0.527832 -2.639343,-1.055756 -2.639343,-1.055756c0,0 -1.055695,-0.263916 -2.639313,-0.527863c-1.319672,-0.263885 -5.80661,0.791809 -7.126251,1.319672l-5.542542,2.111511c-1.319702,0.527832 -3.431244,1.583618 -4.750885,2.639343c-1.055756,1.055725 -3.167145,5.01474 -3.695099,6.334412l-13.988464,35.103424c-0.527924,1.319641 -1.583618,5.806488 -1.319672,7.390106c0.263855,1.319641 1.055725,3.695007 1.583557,5.014679l2.639343,5.542633c0.527893,1.319672 1.847565,3.431122 2.639343,4.486816c0.79184,1.055817 4.750854,3.431213 6.070496,3.959106l13.988525,5.542542l-18.211456,2.639343l-21.378723,12.141022l22.170502,-9.765533l18.475372,-0.79184l4.486938,-1.319702c0.527893,0.791809 0.527893,1.583649 0.263947,2.375397l-1.055725,2.90329c-0.527893,1.319702 -1.055817,3.167267 -1.055817,3.959045l-8.709778,5.278687l-16.100037,0.527893l-11.613068,12.1409l12.404938,-8.709778c0,0 16.363861,0.263947 16.891815,0.263947c0.527802,0 3.431091,-3.695068 3.431091,-3.695068l-1.319702,4.750793l9.501678,6.598358l-0.527893,7.654083l3.167236,-9.501648l-9.237671,-5.01474l2.639313,-6.862244l1.847565,-1.055786c0.791779,0.527893 1.583557,0.79184 2.11145,1.055786l10.293365,4.2229c1.319672,0.527893 3.167175,1.055817 3.958954,1.055817c0.791809,0 2.639313,-2.639343 3.167175,-3.959106l1.055725,-2.903229c0.527893,-1.319672 2.11145,-2.111511 3.695068,-1.583618l18.475433,7.390137c1.319641,0.527893 3.695038,1.319672 5.01474,1.319672c1.319641,0.263947 5.806549,-0.791779 7.126221,-1.319672l5.80661,-2.375397c1.319641,-0.527893 3.431091,-1.583618 4.750793,-2.375397c1.055695,-0.79184 3.431091,-4.750793 3.958984,-6.070526l2.11145,-5.01474l11.085297,11.877045l0,6.862305l6.334381,5.80661l-5.014709,-8.445953l-0.263947,-4.486847l-2.639343,-4.222961l19.531128,-0.263947l20.586914,11.877045l-19.531128,-17.419708l-23.754089,-0.791748zm-98.183655,-20.586914c-0.527893,1.319641 -1.055695,2.375458 -1.319641,2.375458c-0.263947,-0.263947 -0.791809,-1.583618 -1.583649,-3.167267l-2.639343,-5.542633c-0.527802,-1.319641 -1.319672,-2.90329 -1.319672,-3.431091c0,-0.527893 0.527924,-2.639343 1.055725,-3.959045l13.988586,-35.103333c0.527832,-1.319641 1.319672,-2.903259 1.583618,-3.167145c0.263855,-0.263947 2.11145,-1.319672 3.695068,-1.847565l5.542633,-2.11145c1.319641,-0.527893 2.639343,-1.055786 2.903198,-1.055786c0.263947,0 0.263947,1.055786 -0.263855,2.375458l-21.64267,54.634399zm65.191833,26.657349c-0.527893,1.319702 -2.111481,2.111542 -3.695129,1.583649l-55.162262,-22.170502c-1.319702,-0.527893 -2.11145,-2.111511 -1.583649,-3.695038l22.170563,-55.426331c0.527802,-1.319641 2.11145,-2.11142 3.695068,-1.583527l55.162292,22.170471c1.319641,0.527893 2.11145,2.11145 1.583588,3.695068l-22.170471,55.426208zm18.739288,-4.486877c-0.527802,1.319733 -1.319672,2.90329 -1.583557,3.167236c-0.263947,0.263947 -2.111481,1.319641 -3.695129,1.847565l-5.806488,2.375397c-1.319702,0.527832 -2.639374,1.055725 -2.90332,1.055725c-0.263947,0 -0.263947,-1.055725 0.527924,-2.375397l21.906494,-54.63446c0.527924,-1.319672 1.055756,-2.375397 1.319702,-2.375397c0.263947,0.263947 1.055695,1.583618 1.583618,3.167236l2.639343,5.542572c0.527832,1.319733 1.319672,2.90329 1.319672,3.431183c0,0.527893 -0.527893,2.639343 -1.055725,3.959045l-14.252533,34.839294z" id="svg_2" fill="#2c2d2a"/>
   <path stroke="null" fill="#2c2d2a" d="m411.627838,301.991821l13.988556,10.02948c1.319672,0.79184 2.639313,0.527893 3.167145,-1.055756l6.070557,-15.044189c0.527893,-1.319672 0,-3.167236 -1.319702,-4.222992l-13.988525,-10.029541c-1.319702,-0.791779 -2.639343,-0.527832 -3.167175,1.055817l-6.070557,15.04422c-0.527802,1.319641 0,3.167206 1.319702,4.222961z" id="svg_3"/>
   <path stroke="null" fill="#2c2d2a" d="m402.390106,324.690186l13.988586,10.02948c1.319672,0.79184 2.639343,0.527893 3.167175,-1.055725l6.070526,-15.044312c0.527802,-1.319641 0,-3.167145 -1.319672,-4.22287l-13.988586,-10.029572c-1.319641,-0.791779 -2.639343,-0.527832 -3.167145,1.055725l-6.070557,15.044312c-0.527832,1.583618 0,3.431091 1.319672,4.222961z" id="svg_4"/>
   <path stroke="null" fill="#2c2d2a" d="m420.601654,280.315765l13.988495,10.029541c1.319641,0.791809 2.639343,0.527863 3.167236,-1.055695l6.070496,-15.044312c0.527863,-1.319672 0,-3.167236 -1.319702,-4.222961l-13.988525,-10.02948c-1.319641,-0.79184 -2.639313,-0.527893 -3.167206,1.055756l-6.070465,15.044281c-0.263947,1.319641 0.263885,3.167145 1.319672,4.22287z" id="svg_5"/>
   <path stroke="null" d="m393.152405,347.652435l13.988586,10.029541c1.319641,0.791779 2.639343,0.527832 3.167145,-1.055695l6.070557,-15.044342c0.527832,-1.319641 0,-3.167206 -1.319672,-4.222931l-13.988586,-10.02948c-1.319672,-0.79187 -2.639343,-0.527893 -3.167175,1.055725l-6.070496,15.044281c-0.527863,1.583557 0,3.431152 1.319641,4.2229z" id="svg_6" fill="#2c2d2a"/>
   <path stroke="null" fill="#2c2d2a" d="m383.914673,370.614746l13.988586,10.02948c1.319702,0.79187 2.639343,0.527893 3.167175,-1.055695l6.070557,-15.04422c0.527802,-1.319702 0,-3.167267 -1.319702,-4.222992l-13.988525,-10.029541c-1.319702,-0.791748 -2.639343,-0.527802 -3.167206,1.055786l-6.070526,15.308197c-0.527802,1.319641 0,3.167236 1.319641,3.958984z" id="svg_7"/>
   <path stroke="null" fill="#2c2d2a" d="m429.839355,256.06723l13.988525,10.02948c1.319641,0.79184 2.639313,0.527893 3.167206,-1.055725l4.486847,-11.085281c0.527893,-1.319656 0,-2.903214 -1.583618,-3.695053l-15.572113,-6.334427c-1.319702,-0.527893 -2.90329,0 -3.695099,1.583633l-2.375397,6.07045c0,1.583633 0.527832,3.431213 1.583649,4.486923z" id="svg_8"/>
  </g>
 </g>
</svg>